<?xml version="1.0" standalone="no"?><!DOCTYPE svg PUBLIC "-//W3C//DTD SVG 1.1//EN" "http://www.w3.org/Graphics/SVG/1.1/DTD/svg11.dtd"><svg t="1579099997445" class="icon" viewBox="0 0 1246 1024" version="1.1" xmlns="http://www.w3.org/2000/svg" p-id="2691" data-spm-anchor-id="a313x.7781069.0.i1" xmlns:xlink="http://www.w3.org/1999/xlink" width="155.75" height="128"><defs><style type="text/css"></style></defs><path d="M617.071304 0.667826c340.257391 0 617.071304 226.214957 617.071305 504.253217S957.350957 1009.152 617.071304 1009.152C276.813913 1009.152 0 782.959304 0 504.921043S276.813913 0.667826 617.071304 0.667826z m243.979131 437.670957c-43.186087 0-78.180174 34.593391-80.11687 77.913043-191.488 12.866783-292.841739-2.82713-344.642782-18.854956 1.335652-5.89913 2.226087-11.954087 2.226087-18.253913 0-45.056-36.062609-81.563826-80.517566-81.563827-44.432696 0-80.473043 36.507826-80.473043 81.541566 0 45.033739 36.040348 81.541565 80.473043 81.541565 31.142957 0 57.833739-18.098087 71.212522-44.299131 41.138087 12.978087 109.078261 25.043478 220.827826 25.043479 38.622609 0 82.587826-1.491478 132.229565-4.830609 7.613217 37.019826 40.002783 64.868174 78.803479 64.868174 44.454957 0 80.495304-36.507826 80.495304-81.541565 0-45.056-36.040348-81.563826-80.495304-81.563826z" p-id="2692" fill="#d81e06"></path></svg>